<svg version="1.0" xmlns="http://www.w3.org/2000/svg"
 viewBox="0 0 480.000000 71.000000" preserveAspectRatio="xMidYMid meet"
 fill="%23283583"
>
<g transform="translate(0.000000,71.000000) scale(0.100000,-0.100000)"
 stroke="none">
<path d="M1600 611 l0 -79 -109 -4 c-121 -3 -148 -15 -185 -77 -26 -44 -26
-168 0 -212 36 -61 64 -74 177 -77 94 -3 105 -2 137 20 53 36 59 66 59 301 l1
207 -40 0 -40 0 0 -79z m0 -244 c0 -120 -6 -130 -94 -135 -110 -7 -146 21
-146 113 0 54 15 90 44 103 11 6 60 11 109 11 l87 1 0 -93z"/>
<path d="M3137 620 c-32 -25 -39 -49 -72 -226 -30 -159 -36 -174 -62 -158 -18
11 -22 38 -48 317 l-7 77 -44 0 -44 0 5 -42 c3 -24 14 -119 25 -213 19 -167
20 -171 50 -198 42 -37 98 -37 140 1 28 25 33 39 62 192 17 91 36 171 43 179
30 31 41 4 69 -160 16 -90 34 -175 42 -190 33 -66 149 -65 185 2 8 15 58 376
59 422 0 4 -19 7 -43 7 l-43 0 -18 -177 c-18 -187 -26 -223 -50 -223 -22 0
-25 7 -52 162 -14 79 -29 158 -35 175 -14 44 -53 73 -99 73 -22 0 -48 -8 -63
-20z"/>
<path d="M50 590 l0 -40 135 0 c122 0 137 -2 155 -20 26 -26 26 -64 0 -90 -18
-18 -33 -20 -133 -20 -149 0 -147 2 -147 -148 l0 -112 40 0 40 0 0 90 0 90 96
0 c157 0 208 40 202 157 -7 112 -46 133 -248 133 l-140 0 0 -40z"/>
<path d="M540 496 l0 -36 119 0 c130 0 151 -8 151 -55 0 -23 -2 -23 -120 -27
-113 -3 -121 -4 -146 -29 -49 -49 -30 -156 32 -179 14 -6 81 -10 149 -10 99 0
127 3 139 16 13 12 16 41 16 150 0 134 0 134 -29 166 l-29 33 -141 3 -141 4 0
-36z m268 -218 l-3 -43 -94 -3 c-100 -3 -121 4 -121 42 0 39 18 46 123 46 l98
0 -3 -42z"/>
<path d="M1023 518 c-34 -17 -43 -60 -43 -214 l0 -144 40 0 40 0 0 138 c0 94
4 142 12 150 7 7 42 12 85 12 l73 0 0 35 0 35 -92 -1 c-51 0 -103 -5 -115 -11z"/>
<path d="M1861 512 c-67 -34 -97 -113 -81 -215 15 -98 71 -137 193 -137 118 0
169 35 189 132 21 102 -12 187 -89 227 -35 18 -172 14 -212 -7z m206 -75 c12
-12 19 -38 21 -85 5 -93 -11 -114 -97 -120 -104 -8 -141 22 -141 113 0 53 15
89 44 104 33 17 153 9 173 -12z"/>
<path d="M2304 514 c-48 -24 -59 -54 -59 -169 0 -170 17 -185 220 -185 l135 0
0 35 0 35 -121 0 c-135 0 -159 7 -159 50 l0 28 121 4 c118 3 121 4 145 31 18
21 24 40 24 73 0 92 -35 114 -177 114 -68 0 -108 -5 -129 -16z m217 -64 c21
-12 25 -50 7 -68 -8 -8 -47 -12 -110 -12 l-98 0 0 35 c0 22 6 38 18 44 22 14
158 14 183 1z"/>
<path d="M3663 518 c-34 -17 -43 -60 -43 -214 l0 -144 40 0 40 0 0 138 c0 94
4 142 12 150 7 7 42 12 85 12 l73 0 0 35 0 35 -92 -1 c-51 0 -103 -5 -115 -11z"/>
<path d="M3960 496 l0 -36 119 0 c130 0 151 -8 151 -55 0 -23 -2 -23 -120 -27
-113 -3 -121 -4 -146 -29 -49 -49 -30 -156 32 -179 14 -6 81 -10 149 -10 99 0
127 3 139 16 13 12 16 41 16 150 0 134 0 134 -29 166 l-29 33 -141 3 -141 4 0
-36z m268 -218 l-3 -43 -94 -3 c-100 -3 -121 4 -121 42 0 39 18 46 123 46 l98
0 -3 -42z"/>
<path d="M4426 368 c57 -146 82 -189 115 -200 6 -2 0 -26 -14 -58 -44 -99 -44
-100 0 -100 l38 0 103 244 c56 134 105 251 108 260 5 13 -1 16 -33 16 l-39 0
-60 -142 c-37 -88 -66 -143 -75 -143 -9 0 -35 53 -71 140 l-56 140 -40 3 -40
3 64 -163z"/>
</g>
</svg>
